REM DIRINDEX 1\2,1\3,1\4,1\5,1\6
REM DIRNAME "folder01","folder02","folder03","folder04","folder05","folder06"
TITLE ""
FILE "Disc3Track60.mp3" MP3
  TRACK 01 AUDIO
    TITLE "3:cjc161_05940"
    INDEX 01 00:00:00
  TRACK 02 AUDIO
    TITLE "4:cjc161_05941"
    INDEX 01 00:01:27
  TRACK 03 AUDIO
    TITLE "5:cjc161_05942"
    INDEX 01 00:03:40
  TRACK 04 AUDIO
    TITLE "6:cjc161_05943"
    INDEX 01 00:05:02
  TRACK 05 AUDIO
    TITLE "0:"
    INDEX 01 00:09:13
  TRACK 06 AUDIO
    TITLE "3:cjc161_05944"
    INDEX 01 00:09:45
  TRACK 07 AUDIO
    TITLE "4:cjc161_05945"
    INDEX 01 00:11:14
  TRACK 08 AUDIO
    TITLE "5:cjc161_05946"
    INDEX 01 00:12:06
  TRACK 09 AUDIO
    TITLE "6:cjc161_05947"
    INDEX 01 00:13:50
  TRACK 10 AUDIO
    TITLE "0:"
    INDEX 01 00:16:21
  TRACK 11 AUDIO
    TITLE "3:cjc161_05948"
    INDEX 01 00:16:52
  TRACK 12 AUDIO
    TITLE "4:cjc161_05949"
    INDEX 01 00:18:26
  TRACK 13 AUDIO
    TITLE "5:cjc161_05950"
    INDEX 01 00:19:55
  TRACK 14 AUDIO
    TITLE "0:"
    INDEX 01 00:21:28
  TRACK 15 AUDIO
    TITLE "3:cjc161_05951"
    INDEX 01 00:21:65
  TRACK 16 AUDIO
    TITLE "4:cjc161_05952"
    INDEX 01 00:23:47
  TRACK 17 AUDIO
    TITLE "5:cjc161_05953"
    INDEX 01 00:25:06
  TRACK 18 AUDIO
    TITLE "6:cjc161_05954"
    INDEX 01 00:26:61
  TRACK 19 AUDIO
    TITLE "0:"
    INDEX 01 00:30:19
  TRACK 20 AUDIO
    TITLE "3:cjc161_05955"
    INDEX 01 00:30:51
  TRACK 21 AUDIO
    TITLE "4:cjc161_05956"
    INDEX 01 00:32:18
  TRACK 22 AUDIO
    TITLE "5:cjc161_05957"
    INDEX 01 00:34:52
  TRACK 23 AUDIO
    TITLE "6:cjc161_05958"
    INDEX 01 00:36:18
  TRACK 24 AUDIO
    TITLE "0:"
    INDEX 01 00:38:25
  TRACK 25 AUDIO
    TITLE "3:cjc161_05959"
    INDEX 01 00:38:60
  TRACK 26 AUDIO
    TITLE "4:cjc161_05960"
    INDEX 01 00:40:10
  TRACK 27 AUDIO
    TITLE "5:cjc161_05961"
    INDEX 01 00:42:34
  TRACK 28 AUDIO
    TITLE "6:cjc161_05962"
    INDEX 01 00:43:57
  TRACK 29 AUDIO
    TITLE "0:"
    INDEX 01 00:48:39
  TRACK 30 AUDIO
    TITLE "3:cjc161_05963"
    INDEX 01 00:48:74
  TRACK 31 AUDIO
    TITLE "4:cjc161_05964"
    INDEX 01 00:50:42
  TRACK 32 AUDIO
    TITLE "5:cjc161_05965"
    INDEX 01 00:51:41
  TRACK 33 AUDIO
    TITLE "6:cjc161_05966"
    INDEX 01 00:53:07
  TRACK 34 AUDIO
    TITLE "0:"
    INDEX 01 00:55:41
  TRACK 35 AUDIO
    TITLE "3:cjc161_05967"
    INDEX 01 00:55:72
  TRACK 36 AUDIO
    TITLE "4:cjc161_05968"
    INDEX 01 00:57:32
  TRACK 37 AUDIO
    TITLE "5:cjc161_05969"
    INDEX 01 00:58:67
  TRACK 38 AUDIO
    TITLE "6:cjc161_05970"
    INDEX 01 01:00:24
  TRACK 39 AUDIO
    TITLE "0:"
    INDEX 01 01:03:17
  TRACK 40 AUDIO
    TITLE "3:cjc161_05971"
    INDEX 01 01:03:48
  TRACK 41 AUDIO
    TITLE "4:cjc161_05972"
    INDEX 01 01:05:22
  TRACK 42 AUDIO
    TITLE "5:cjc161_05973"
    INDEX 01 01:07:09
  TRACK 43 AUDIO
    TITLE "0:"
    INDEX 01 01:08:59
  TRACK 44 AUDIO
    TITLE "3:cjc161_05974"
    INDEX 01 01:09:23
  TRACK 45 AUDIO
    TITLE "4:cjc161_05975"
    INDEX 01 01:10:60
  TRACK 46 AUDIO
    TITLE "5:cjc161_05976"
    INDEX 01 01:12:20
  TRACK 47 AUDIO
    TITLE "6:cjc161_05977"
    INDEX 01 01:13:56
  TRACK 48 AUDIO
    TITLE "0:"
    INDEX 01 01:18:42
  TRACK 49 AUDIO
    TITLE "3:cjc161_05978"
    INDEX 01 01:18:75
  TRACK 50 AUDIO
    TITLE "4:cjc161_05979"
    INDEX 01 01:20:39
  TRACK 51 AUDIO
    TITLE "5:cjc161_05980"
    INDEX 01 01:23:33
  TRACK 52 AUDIO
    TITLE "0:"
    INDEX 01 01:24:74
  TRACK 53 AUDIO
    TITLE "3:cjc161_05981"
    INDEX 01 01:25:36
  TRACK 54 AUDIO
    TITLE "4:cjc161_05982"
    INDEX 01 01:27:13
  TRACK 55 AUDIO
    TITLE "5:cjc161_05983"
    INDEX 01 01:29:10
  TRACK 56 AUDIO
    TITLE "6:cjc161_05984"
    INDEX 01 01:30:61
  TRACK 57 AUDIO
    TITLE "0:"
    INDEX 01 01:35:38
  TRACK 58 AUDIO
    TITLE "3:cjc161_05985"
    INDEX 01 01:35:68
  TRACK 59 AUDIO
    TITLE "4:cjc161_05986"
    INDEX 01 01:37:22
  TRACK 60 AUDIO
    TITLE "5:cjc161_05987"
    INDEX 01 01:39:56
  TRACK 61 AUDIO
    TITLE "0:"
    INDEX 01 01:41:10
  TRACK 62 AUDIO
    TITLE "3:cjc161_05988"
    INDEX 01 01:41:51
  TRACK 63 AUDIO
    TITLE "4:cjc161_05989"
    INDEX 01 01:43:14
  TRACK 64 AUDIO
    TITLE "5:cjc161_05990"
    INDEX 01 01:45:21
  TRACK 65 AUDIO
    TITLE "6:cjc161_05991"
    INDEX 01 01:46:62
  TRACK 66 AUDIO
    TITLE "0:"
    INDEX 01 01:51:22
